<svg xmlns="http://www.w3.org/2000/svg" fill="none" viewBox="0 0 78 91">
  <path d="M73.4 60.77c-2.446 6.628-6.145 12.392-10.996 17.129-5.521 5.392-12.752 9.676-21.49 12.732-.286.1-.586.182-.886.243-.397.078-.801.12-1.202.126h-.078c-.427 0-.857-.043-1.282-.126a6.94 6.94 0 01-.881-.24C27.836 87.581 20.597 83.3 15.07 77.907 10.217 73.17 6.519 67.41 4.076 60.781c-4.441-12.053-4.188-25.33-3.985-36l.003-.164c.041-.88.068-1.806.082-2.828.075-5.018 4.064-9.169 9.082-9.449 10.463-.583 18.557-3.996 25.472-10.737l.06-.055a5.826 5.826 0 017.915 0l.059.055c6.917 6.741 15.01 10.154 25.473 10.737 5.019.28 9.008 4.431 9.082 9.449.015 1.029.041 1.953.082 2.828l.002.07c.203 10.69.454 23.993-4.003 36.081z" fill="#0458F6"/>
  <path d="M73.4 60.77c-2.446 6.628-6.145 12.392-10.996 17.129-5.522 5.392-12.752 9.676-21.49 12.732-.287.1-.586.182-.886.243-.398.078-.802.12-1.202.126V0a5.839 5.839 0 013.879 1.549l.059.055c6.917 6.741 15.01 10.154 25.473 10.737 5.019.28 9.008 4.431 9.082 9.449.015 1.029.041 1.953.082 2.828l.002.07c.203 10.69.454 23.993-4.003 36.081z" fill="#003EB3"/>
  <path d="M61.425 45.5c0 12.478-10.131 22.635-22.6 22.68h-.08c-12.504 0-22.679-10.175-22.679-22.68 0-12.505 10.175-22.68 22.68-22.68h.08c12.468.045 22.6 10.203 22.6 22.68z" fill="#fff"/>
  <path d="M61.425 45.5c0 12.478-10.131 22.635-22.6 22.68V22.82c12.469.045 22.6 10.203 22.6 22.68z" fill="#E1EBF0"/>
  <path d="M49.04 42.234L38.826 52.45l-2.207 2.207a2.662 2.662 0 01-1.889.782c-.684 0-1.367-.26-1.889-.782l-4.745-4.748a2.67 2.67 0 113.775-3.775l2.86 2.859 10.533-10.534a2.67 2.67 0 113.775 3.776z" fill="#0458F6"/>
  <path d="M49.04 42.234L38.826 52.45v-7.553l6.438-6.438a2.67 2.67 0 113.776 3.776z" fill="#0458F6"/>
</svg>
